<svg id="svg" version="1.1" xmlns="http://www.w3.org/2000/svg" xmlns:xlink="http://www.w3.org/1999/xlink" width="400" height="400" viewBox="0, 0, 400,400"><g id="svgg"><path id="path0" d="M145.800 101.286 C 139.566 102.248,129.947 105.523,125.800 108.095 C 125.360 108.368,124.190 109.089,123.200 109.697 C 122.210 110.305,121.040 111.062,120.600 111.378 C 120.160 111.695,119.042 112.462,118.115 113.082 C 114.982 115.179,108.270 122.055,105.567 125.937 C 102.972 129.663,102.481 130.433,101.570 132.200 C 101.117 133.080,100.506 134.250,100.213 134.800 C 99.138 136.814,98.055 139.442,97.622 141.083 C 97.378 142.009,97.027 142.860,96.842 142.974 C 96.657 143.088,96.387 144.078,96.241 145.173 C 96.096 146.268,95.698 147.937,95.357 148.882 C 93.743 153.350,93.887 170.066,95.582 174.963 C 96.032 176.262,96.400 177.699,96.400 178.155 C 96.400 179.972,101.376 191.385,102.618 192.415 C 102.938 192.681,103.200 193.121,103.200 193.394 C 103.200 193.667,103.738 194.590,104.395 195.445 C 105.941 197.456,105.924 197.434,107.794 199.916 C 109.385 202.028,111.018 202.941,111.579 202.034 C 111.740 201.773,115.403 197.988,119.718 193.623 C 128.785 184.450,128.650 184.708,126.206 181.229 C 125.213 179.815,124.400 178.442,124.400 178.178 C 124.400 177.914,124.139 177.482,123.820 177.217 C 123.502 176.952,123.036 176.075,122.786 175.268 C 122.536 174.461,122.066 173.210,121.741 172.489 C 119.745 168.048,119.819 154.898,121.869 150.062 C 124.207 144.545,126.709 140.329,129.202 137.704 C 131.835 134.932,136.902 131.153,139.600 129.949 C 140.150 129.703,141.230 129.180,142.000 128.785 C 142.770 128.391,144.120 127.949,145.000 127.802 C 145.880 127.656,147.279 127.281,148.108 126.968 C 148.938 126.656,150.231 126.400,150.982 126.400 C 151.733 126.400,152.810 126.224,153.374 126.010 L 154.400 125.620 154.400 113.624 C 154.400 99.262,154.839 99.892,145.800 101.286 M217.127 104.008 C 216.756 104.229,214.956 104.605,213.127 104.843 C 211.297 105.082,209.287 105.525,208.660 105.828 C 208.033 106.131,206.863 106.494,206.060 106.634 C 205.257 106.774,204.037 107.209,203.349 107.602 C 202.662 107.994,201.539 108.438,200.854 108.588 C 200.169 108.739,199.509 109.023,199.388 109.220 C 199.266 109.417,197.654 110.317,195.806 111.220 C 193.958 112.123,192.391 112.983,192.323 113.131 C 192.255 113.279,191.390 113.922,190.400 114.561 C 186.579 117.024,179.475 123.767,176.803 127.466 C 176.034 128.530,175.307 129.490,175.188 129.600 C 174.678 130.069,170.800 136.463,170.800 136.834 C 170.800 137.058,170.449 137.907,170.019 138.721 C 168.125 142.308,166.110 148.038,165.560 151.400 C 164.247 159.441,164.014 161.377,164.007 164.303 C 164.001 167.219,164.472 171.192,165.607 177.800 C 165.999 180.083,167.402 184.489,168.236 186.062 C 168.546 186.646,168.800 187.347,168.800 187.620 C 168.800 188.052,170.250 191.115,172.467 195.368 C 172.834 196.072,173.419 196.884,173.767 197.173 C 174.115 197.462,174.400 197.861,174.400 198.060 C 174.400 198.597,178.358 203.665,179.548 204.652 C 180.940 205.807,180.950 205.799,189.928 196.690 C 194.038 192.520,197.724 188.791,198.121 188.405 C 198.814 187.729,198.791 187.629,197.521 185.807 C 196.075 183.733,194.591 181.339,194.168 180.400 C 194.020 180.070,193.488 178.900,192.986 177.800 C 192.483 176.700,191.952 175.080,191.804 174.200 C 191.657 173.320,191.281 171.921,190.968 171.092 C 190.191 169.030,190.194 160.245,190.972 157.914 C 191.287 156.971,191.669 155.480,191.821 154.600 C 192.100 152.985,192.385 152.317,194.801 147.600 C 196.664 143.964,200.991 138.840,204.009 136.696 C 206.762 134.740,208.380 133.743,210.200 132.882 C 225.023 125.872,241.914 129.422,252.105 141.688 C 255.488 145.760,256.104 146.787,258.407 152.200 C 260.865 157.975,260.985 170.484,258.627 175.007 C 258.285 175.663,258.004 176.343,258.002 176.517 C 257.998 177.097,255.607 181.783,254.697 182.994 C 247.566 192.487,242.229 197.600,233.200 203.590 C 232.870 203.809,231.970 204.436,231.200 204.984 C 230.430 205.531,229.354 206.175,228.808 206.415 C 228.263 206.654,227.723 206.984,227.608 207.147 C 227.494 207.310,225.348 208.604,222.840 210.022 C 220.332 211.440,217.632 213.007,216.840 213.504 C 216.048 214.002,214.680 214.777,213.800 215.227 C 212.310 215.989,211.138 216.661,207.600 218.788 C 204.426 220.696,202.938 221.580,201.820 222.224 C 201.170 222.598,200.420 223.105,200.153 223.352 C 199.886 223.598,198.742 224.340,197.612 225.000 C 187.312 231.016,171.838 245.768,168.772 252.494 C 168.545 252.992,167.923 254.120,167.390 255.000 C 165.270 258.498,163.039 263.694,162.151 267.200 C 161.844 268.410,161.340 270.210,161.030 271.200 C 160.720 272.190,160.362 274.170,160.233 275.600 C 160.105 277.030,159.698 279.661,159.329 281.446 C 158.268 286.581,158.200 286.501,168.400 292.092 C 169.610 292.755,171.989 294.086,173.686 295.049 C 175.383 296.012,176.931 296.800,177.124 296.800 C 177.318 296.800,177.802 297.160,178.200 297.600 C 179.115 298.611,180.708 298.611,182.000 297.600 C 182.550 297.170,183.212 296.814,183.471 296.809 C 183.731 296.804,184.184 296.559,184.478 296.265 C 185.023 295.720,197.351 289.599,197.899 289.601 C 198.065 289.602,198.920 289.251,199.800 288.823 C 206.601 285.510,218.773 284.577,223.800 286.985 C 224.460 287.301,225.630 287.836,226.400 288.173 C 227.170 288.511,229.240 289.601,231.000 290.597 C 235.204 292.974,243.019 296.799,243.679 296.802 C 243.966 296.804,244.740 297.093,245.400 297.445 C 252.200 301.074,269.017 301.212,279.200 297.723 C 280.190 297.384,281.821 296.946,282.824 296.749 C 283.827 296.552,285.350 296.033,286.208 295.596 C 287.067 295.158,288.141 294.800,288.596 294.800 C 289.050 294.800,289.777 294.556,290.211 294.258 C 290.645 293.959,291.943 293.406,293.095 293.027 C 294.248 292.649,295.293 292.173,295.419 291.969 C 295.544 291.766,295.912 291.600,296.235 291.600 C 297.967 291.600,307.600 286.307,307.600 285.355 C 307.600 284.863,304.699 279.377,301.907 274.588 C 301.526 273.935,300.923 272.770,300.567 272.000 C 300.211 271.230,299.690 270.330,299.407 270.000 C 299.125 269.670,298.766 268.978,298.608 268.462 C 297.296 264.163,295.446 263.375,291.423 265.401 C 289.896 266.171,288.435 266.800,288.177 266.800 C 287.919 266.800,287.264 267.149,286.722 267.575 C 286.180 268.002,285.211 268.482,284.568 268.643 C 283.926 268.804,282.860 269.264,282.200 269.666 C 281.540 270.068,280.727 270.398,280.394 270.399 C 280.061 270.399,279.122 270.757,278.309 271.193 C 277.495 271.629,276.058 272.104,275.115 272.248 C 274.172 272.392,273.040 272.696,272.600 272.925 C 269.202 274.687,256.329 274.717,253.833 272.968 C 253.387 272.656,252.657 272.391,252.211 272.381 C 251.765 272.371,250.320 271.738,249.000 270.975 C 247.680 270.212,245.880 269.212,245.000 268.753 C 244.120 268.294,242.500 267.400,241.400 266.767 C 240.300 266.135,239.130 265.500,238.800 265.358 C 238.470 265.215,237.266 264.671,236.125 264.149 C 234.983 263.627,233.923 263.200,233.769 263.200 C 233.614 263.200,232.748 262.862,231.844 262.450 C 223.595 258.685,209.304 258.691,197.254 262.466 C 192.804 263.861,191.801 263.059,194.700 260.424 C 195.745 259.474,197.590 257.764,198.800 256.625 C 201.157 254.405,205.034 251.227,207.369 249.600 C 208.158 249.050,209.118 248.373,209.502 248.095 C 209.886 247.818,211.100 247.029,212.200 246.342 C 213.300 245.655,214.688 244.758,215.284 244.347 C 215.880 243.936,216.477 243.600,216.610 243.600 C 216.744 243.600,217.426 243.195,218.127 242.699 C 219.958 241.403,220.796 240.893,222.600 239.978 C 223.480 239.531,224.920 238.731,225.800 238.199 C 227.428 237.216,228.976 236.348,231.748 234.865 C 232.599 234.410,233.589 233.794,233.948 233.496 C 234.306 233.198,235.050 232.736,235.600 232.469 C 236.150 232.203,237.320 231.550,238.200 231.019 C 239.080 230.488,240.520 229.659,241.400 229.178 C 242.280 228.696,244.762 227.109,246.916 225.651 C 249.069 224.193,251.142 222.820,251.522 222.600 C 252.363 222.113,255.130 220.024,256.026 219.200 C 256.385 218.870,257.191 218.240,257.818 217.800 C 263.978 213.478,276.611 198.952,279.255 193.149 C 279.619 192.351,280.115 191.576,280.358 191.426 C 280.601 191.276,280.800 190.843,280.800 190.465 C 280.800 190.087,281.114 189.333,281.498 188.789 C 285.228 183.502,288.222 167.905,287.035 159.949 C 286.686 157.610,286.400 155.175,286.400 154.536 C 286.400 153.897,286.124 152.390,285.787 151.187 C 285.449 149.984,284.901 147.921,284.568 146.602 C 284.236 145.283,283.702 143.804,283.382 143.316 C 283.062 142.828,282.800 142.193,282.800 141.907 C 282.800 141.407,280.398 136.448,279.182 134.437 C 275.192 127.840,270.689 122.499,265.347 118.029 C 261.733 115.005,260.570 114.206,257.118 112.376 C 256.471 112.033,255.819 111.572,255.671 111.353 C 255.353 110.885,250.254 108.400,249.611 108.400 C 249.370 108.400,248.773 108.144,248.286 107.830 C 247.107 107.072,242.823 105.879,235.800 104.352 C 232.832 103.706,218.088 103.435,217.127 104.008 " stroke="none" fill="#faf9f9" fill-rule="evenodd"></path><path id="path1" d="M0.000 200.000 L 0.000 400.000 200.000 400.000 L 400.000 400.000 400.000 200.000 L 400.000 0.000 200.000 0.000 L 0.000 0.000 0.000 200.000 M153.626 101.214 C 154.365 101.609,154.400 102.173,154.400 113.624 L 154.400 125.620 153.374 126.010 C 152.810 126.224,151.733 126.400,150.982 126.400 C 150.231 126.400,148.938 126.656,148.108 126.968 C 147.279 127.281,145.880 127.656,145.000 127.802 C 144.120 127.949,142.770 128.391,142.000 128.785 C 141.230 129.180,140.150 129.703,139.600 129.949 C 136.902 131.153,131.835 134.932,129.202 137.704 C 126.709 140.329,124.207 144.545,121.869 150.062 C 119.819 154.898,119.745 168.048,121.741 172.489 C 122.066 173.210,122.536 174.461,122.786 175.268 C 123.036 176.075,123.502 176.952,123.820 177.217 C 124.139 177.482,124.400 177.914,124.400 178.178 C 124.400 178.442,125.213 179.815,126.206 181.229 C 128.650 184.708,128.785 184.450,119.718 193.623 C 115.403 197.988,111.740 201.773,111.579 202.034 C 111.018 202.941,109.385 202.028,107.794 199.916 C 105.924 197.434,105.941 197.456,104.395 195.445 C 103.738 194.590,103.200 193.667,103.200 193.394 C 103.200 193.121,102.938 192.681,102.618 192.415 C 101.376 191.385,96.400 179.972,96.400 178.155 C 96.400 177.699,96.032 176.262,95.582 174.963 C 93.887 170.066,93.743 153.350,95.357 148.882 C 95.698 147.937,96.096 146.268,96.241 145.173 C 96.387 144.078,96.657 143.088,96.842 142.974 C 97.027 142.860,97.378 142.009,97.622 141.083 C 98.055 139.442,99.138 136.814,100.213 134.800 C 100.506 134.250,101.117 133.080,101.570 132.200 C 102.481 130.433,102.972 129.663,105.567 125.937 C 108.270 122.055,114.982 115.179,118.115 113.082 C 119.042 112.462,120.160 111.695,120.600 111.378 C 121.040 111.062,122.210 110.305,123.200 109.697 C 124.190 109.089,125.360 108.368,125.800 108.095 C 132.896 103.693,150.243 99.403,153.626 101.214 M235.800 104.352 C 242.823 105.879,247.107 107.072,248.286 107.830 C 248.773 108.144,249.370 108.400,249.611 108.400 C 250.254 108.400,255.353 110.885,255.671 111.353 C 255.819 111.572,256.471 112.033,257.118 112.376 C 260.570 114.206,261.733 115.005,265.347 118.029 C 270.689 122.499,275.192 127.840,279.182 134.437 C 280.398 136.448,282.800 141.407,282.800 141.907 C 282.800 142.193,283.062 142.828,283.382 143.316 C 283.702 143.804,284.236 145.283,284.568 146.602 C 284.901 147.921,285.449 149.984,285.787 151.187 C 286.124 152.390,286.400 153.897,286.400 154.536 C 286.400 155.175,286.686 157.610,287.035 159.949 C 288.222 167.905,285.228 183.502,281.498 188.789 C 281.114 189.333,280.800 190.087,280.800 190.465 C 280.800 190.843,280.601 191.276,280.358 191.426 C 280.115 191.576,279.619 192.351,279.255 193.149 C 276.611 198.952,263.978 213.478,257.818 217.800 C 257.191 218.240,256.385 218.870,256.026 219.200 C 255.130 220.024,252.363 222.113,251.522 222.600 C 251.142 222.820,249.069 224.193,246.916 225.651 C 244.762 227.109,242.280 228.696,241.400 229.178 C 240.520 229.659,239.080 230.488,238.200 231.019 C 237.320 231.550,236.150 232.203,235.600 232.469 C 235.050 232.736,234.306 233.198,233.948 233.496 C 233.589 233.794,232.599 234.410,231.748 234.865 C 228.976 236.348,227.428 237.216,225.800 238.199 C 224.920 238.731,223.480 239.531,222.600 239.978 C 220.796 240.893,219.958 241.403,218.127 242.699 C 217.426 243.195,216.744 243.600,216.610 243.600 C 216.477 243.600,215.880 243.936,215.284 244.347 C 214.688 244.758,213.300 245.655,212.200 246.342 C 211.100 247.029,209.886 247.818,209.502 248.095 C 209.118 248.373,208.158 249.050,207.369 249.600 C 205.034 251.227,201.157 254.405,198.800 256.625 C 197.590 257.764,195.745 259.474,194.700 260.424 C 191.801 263.059,192.804 263.861,197.254 262.466 C 209.304 258.691,223.595 258.685,231.844 262.450 C 232.748 262.862,233.614 263.200,233.769 263.200 C 233.923 263.200,234.983 263.627,236.125 264.149 C 237.266 264.671,238.470 265.215,238.800 265.358 C 239.130 265.500,240.300 266.135,241.400 266.767 C 242.500 267.400,244.120 268.294,245.000 268.753 C 245.880 269.212,247.680 270.212,249.000 270.975 C 250.320 271.738,251.765 272.371,252.211 272.381 C 252.657 272.391,253.387 272.656,253.833 272.968 C 256.329 274.717,269.202 274.687,272.600 272.925 C 273.040 272.696,274.172 272.392,275.115 272.248 C 276.058 272.104,277.495 271.629,278.309 271.193 C 279.122 270.757,280.061 270.399,280.394 270.399 C 280.727 270.398,281.540 270.068,282.200 269.666 C 282.860 269.264,283.926 268.804,284.568 268.643 C 285.211 268.482,286.180 268.002,286.722 267.575 C 287.264 267.149,287.919 266.800,288.177 266.800 C 288.435 266.800,289.896 266.171,291.423 265.401 C 295.446 263.375,297.296 264.163,298.608 268.462 C 298.766 268.978,299.125 269.670,299.407 270.000 C 299.690 270.330,300.211 271.230,300.567 272.000 C 300.923 272.770,301.526 273.935,301.907 274.588 C 304.699 279.377,307.600 284.863,307.600 285.355 C 307.600 286.307,297.967 291.600,296.235 291.600 C 295.912 291.600,295.544 291.766,295.419 291.969 C 295.293 292.173,294.248 292.649,293.095 293.027 C 291.943 293.406,290.645 293.959,290.211 294.258 C 289.777 294.556,289.050 294.800,288.596 294.800 C 288.141 294.800,287.067 295.158,286.208 295.596 C 285.350 296.033,283.827 296.552,282.824 296.749 C 281.821 296.946,280.190 297.384,279.200 297.723 C 269.017 301.212,252.200 301.074,245.400 297.445 C 244.740 297.093,243.966 296.804,243.679 296.802 C 243.019 296.799,235.204 292.974,231.000 290.597 C 229.240 289.601,227.170 288.511,226.400 288.173 C 225.630 287.836,224.460 287.301,223.800 286.985 C 218.773 284.577,206.601 285.510,199.800 288.823 C 198.920 289.251,198.065 289.602,197.899 289.601 C 197.351 289.599,185.023 295.720,184.478 296.265 C 184.184 296.559,183.731 296.804,183.471 296.809 C 183.212 296.814,182.550 297.170,182.000 297.600 C 180.708 298.611,179.115 298.611,178.200 297.600 C 177.802 297.160,177.318 296.800,177.124 296.800 C 176.931 296.800,175.383 296.012,173.686 295.049 C 171.989 294.086,169.610 292.755,168.400 292.092 C 158.200 286.501,158.268 286.581,159.329 281.446 C 159.698 279.661,160.105 277.030,160.233 275.600 C 160.362 274.170,160.720 272.190,161.030 271.200 C 161.340 270.210,161.844 268.410,162.151 267.200 C 163.039 263.694,165.270 258.498,167.390 255.000 C 167.923 254.120,168.545 252.992,168.772 252.494 C 171.838 245.768,187.312 231.016,197.612 225.000 C 198.742 224.340,199.886 223.598,200.153 223.352 C 200.420 223.105,201.170 222.598,201.820 222.224 C 202.938 221.580,204.426 220.696,207.600 218.788 C 211.138 216.661,212.310 215.989,213.800 215.227 C 214.680 214.777,216.048 214.002,216.840 213.504 C 217.632 213.007,220.332 211.440,222.840 210.022 C 225.348 208.604,227.494 207.310,227.608 207.147 C 227.723 206.984,228.263 206.654,228.808 206.415 C 229.354 206.175,230.430 205.531,231.200 204.984 C 231.970 204.436,232.870 203.809,233.200 203.590 C 242.229 197.600,247.566 192.487,254.697 182.994 C 255.607 181.783,257.998 177.097,258.002 176.517 C 258.004 176.343,258.285 175.663,258.627 175.007 C 260.985 170.484,260.865 157.975,258.407 152.200 C 256.104 146.787,255.488 145.760,252.105 141.688 C 241.914 129.422,225.023 125.872,210.200 132.882 C 208.380 133.743,206.762 134.740,204.009 136.696 C 200.991 138.840,196.664 143.964,194.801 147.600 C 192.385 152.317,192.100 152.985,191.821 154.600 C 191.669 155.480,191.287 156.971,190.972 157.914 C 190.194 160.245,190.191 169.030,190.968 171.092 C 191.281 171.921,191.657 173.320,191.804 174.200 C 191.952 175.080,192.483 176.700,192.986 177.800 C 193.488 178.900,194.020 180.070,194.168 180.400 C 194.591 181.339,196.075 183.733,197.521 185.807 C 198.791 187.629,198.814 187.729,198.121 188.405 C 197.724 188.791,194.038 192.520,189.928 196.690 C 180.950 205.799,180.940 205.807,179.548 204.652 C 178.358 203.665,174.400 198.597,174.400 198.060 C 174.400 197.861,174.115 197.462,173.767 197.173 C 173.419 196.884,172.834 196.072,172.467 195.368 C 170.250 191.115,168.800 188.052,168.800 187.620 C 168.800 187.347,168.546 186.646,168.236 186.062 C 167.402 184.489,165.999 180.083,165.607 177.800 C 164.472 171.192,164.001 167.219,164.007 164.303 C 164.014 161.377,164.247 159.441,165.560 151.400 C 166.110 148.038,168.125 142.308,170.019 138.721 C 170.449 137.907,170.800 137.058,170.800 136.834 C 170.800 136.463,174.678 130.069,175.188 129.600 C 175.307 129.490,176.034 128.530,176.803 127.466 C 179.475 123.767,186.579 117.024,190.400 114.561 C 191.390 113.922,192.255 113.279,192.323 113.131 C 192.391 112.983,193.958 112.123,195.806 111.220 C 197.654 110.317,199.266 109.417,199.388 109.220 C 199.509 109.023,200.169 108.739,200.854 108.588 C 201.539 108.438,202.662 107.994,203.349 107.602 C 204.037 107.209,205.257 106.774,206.060 106.634 C 206.863 106.494,208.033 106.131,208.660 105.828 C 209.287 105.525,211.297 105.082,213.127 104.843 C 214.956 104.605,216.756 104.229,217.127 104.008 C 218.088 103.435,232.832 103.706,235.800 104.352 " stroke="none" fill="#2b2b23" fill-rule="evenodd"></path></g></svg>